<svg id="Layer_1" data-name="Layer 1" xmlns="http://www.w3.org/2000/svg" viewBox="0 0 340.5 97.6"><defs><style>.cls-1{fill:#d1d3d4;}.cls-2{fill:#231f20;}</style></defs><path class="cls-1" d="M309.69,296.31c-13.12.84-19.66,6.14-19.64,15.78q0,20.36.06,40.56c0,9.42,6.39,13.75,19.12,13.1s19.34-6.33,19.48-16.43q.1-7.53.21-14.67-8.3.93-16.59,2-.06,7-.11,14.17,0,3.63-2.8,3.89t-2.82-3.32c0-2.59,0-5.17,0-7.74a9.86,9.86,0,0,1,8.34-9.54l5.66-.69a9.91,9.91,0,0,0,8.42-9.39q.14-8.68.26-16.75C329.47,298.91,322.93,295.49,309.69,296.31Z" transform="translate(-125.45 -283.13)"/><path class="cls-1" d="M364.37,293.59l-6.12.24c-.75.7-1.51,1.4-2.26,2.12-3.83-1.42-6.93-2.06-9.31-1.94-9,.46-13.54,3.82-13.66,10.51q-.39,22-.79,49.29a9,9,0,0,0,3.44,7.52A12.09,12.09,0,0,0,344,364q6.92-.27,10.21-3.44c-.1,5-2.09,7.62-6,7.71-4.44.11-8.87.25-13.31.39q-.09,5.83-.17,11.9l16.93.15c8.88.09,14.21-1.83,16-5.69a35.77,35.77,0,0,0,2.91-14.13q.94-36.63,1.9-60.93C372.69,296.15,369,293.42,364.37,293.59Z" transform="translate(-125.45 -283.13)"/><path class="cls-1" d="M396.16,292.62c-13.12.06-19.83,3.68-20.15,11.9q-.69,17.63-1.38,41.26c-.31,11.16,5.9,17.32,18.62,17.43s19.5-5.37,20-16q.34-8,.69-15.4-8.3-.64-16.59-.85-.3,7.33-.59,15.37c-.1,2.7-1.07,4.07-2.92,4s-2.79-1.43-2.69-4.14q.15-4.41.3-8.61c.19-5.14,4.06-9,8.64-8.88,1.89.06,3.77.14,5.66.24a8.43,8.43,0,0,0,8.72-8q.44-8.75.87-16.47C415.78,296.37,409.39,292.67,396.16,292.62Z" transform="translate(-125.45 -283.13)"/><path class="cls-1" d="M450.21,331.15a8.7,8.7,0,0,1,.27-5.81c4-9.43,8.14-18.51,12.27-28.34-3.16-.41-6.33-.78-9.49-1.12a8.06,8.06,0,0,0-8.57,5c-1.21,3.4-2.41,6.82-3.61,10.3q-1.56-6-3.13-11.51a8.26,8.26,0,0,0-7.69-5.66q-5.85-.35-11.68-.56c3.39,7.88,6.74,17.06,10.05,27.2a8.6,8.6,0,0,1-.25,6c-4.59,10.76-9.13,22.64-13.61,36.09q5.13.26,10.26.62c3.64.25,7-2.41,8.22-6.38q2.16-7,4.33-13.43c1,4.76,2.07,9.61,3.1,14.49.86,4.07,3.88,7.11,7.47,7.52l.15,0c5.73.59,10.11-4.73,8.44-10.76C454.58,347,452.41,339,450.21,331.15Z" transform="translate(-125.45 -283.13)"/><path class="cls-1" d="M186.83,301.51c-13.12-.08-19.43,5.54-18.93,16.12q1,22.49,2.1,39.8c.5,8.12,7.11,11.95,19.85,12.21s19.11-3.14,18.8-10.76q-.26-5.79-.49-12.24c-5.53.15-11.07.2-16.6.11q.28,6.38.58,12.08c.1,1.91-.78,2.82-2.63,2.78a2.73,2.73,0,0,1-3-2.91q-.17-3.13-.33-6.47c-.21-4.09,3.34-7.52,7.93-7.48h5.66a8,8,0,0,0,8-8.33q-.31-8.85-.62-18.8C206.85,307.16,200.07,301.5,186.83,301.51Z" transform="translate(-125.45 -283.13)"/><path class="cls-1" d="M235.42,354.35q-.49-18.44-1-41.74,4.54-.3,9.09-.66-.1-5.59-.21-11.45-4.56.25-9.12.46-.17-8.11-.33-16.77l-17,.14q.21,9,.43,17.31l-7.52.21q.16,6.18.34,12c2.5-.08,5-.17,7.49-.28q.64,23.82,1.29,41.88c.2,5.59,1.06,9,2.59,10.73s6,2.48,13.41,2.2c3.45-.14,6.91-.29,10.36-.45q-.1-4.76-.23-9.84c-4,.31-6.55.19-7.75-.33S235.47,356.12,235.42,354.35Z" transform="translate(-125.45 -283.13)"/><path class="cls-1" d="M283.47,300.19a13.44,13.44,0,0,0-8.66-2.15c-4.7.31-8.17,1.52-10.4,3.69l0-2.5c-2.81.19-5.62.36-8.44.54-4.66.26-8.37,4.79-8.28,9.93q.48,28.51,1,50.92c.09,4,3.83,6.91,8.36,6.69s8.16-3.77,8.11-8q-.27-21.25-.55-45.74c0-2.1.93-3.26,2.86-3.45s2.9.82,2.92,3,0,4.44.06,6.64a7.29,7.29,0,0,0,8.42,7.43,9.79,9.79,0,0,0,8.32-9.45l0-10.7A7.75,7.75,0,0,0,283.47,300.19Z" transform="translate(-125.45 -283.13)"/><path class="cls-1" d="M159.68,337c-9.53-5.64-14.84-9.89-15.88-11.91a22.9,22.9,0,0,1-1.89-8.71c-.22-3.67.71-5.4,2.79-5.14s3.3,3.44,3.64,9.34c0,2.8.08,5.56.13,8.26q8.15,1.29,16.29,2.08-.36-6.85-.72-14.24c-.47-10.23-7.09-16-19.86-16.83-13.12-.87-19.35,2.88-18.68,12l.63,8.85a14.25,14.25,0,0,0,3.25,8.59c1.92,2.18,7.38,6.69,16.32,12.61,2.39,2,3.76,5.69,4.1,10.87.26,4-.53,5.75-2.38,5.5s-2.85-1.43-3-3.51c-.13-1.83-.25-3.68-.38-5.54-.28-4.26-4.23-8.51-8.82-9.55s-8,1.57-7.72,6q.21,3,.43,6c.64,9,7.3,14.45,20,15.57,12.94,1.09,19.17-2.12,18.67-10.18-.18-2.91-.36-5.91-.54-9C165.8,343.93,163.69,340.21,159.68,337Z" transform="translate(-125.45 -283.13)"/><path class="cls-2" d="M312.87,295.26c-13.12.83-19.67,6.13-19.65,15.77q0,20.36.06,40.56c0,9.42,6.4,13.75,19.13,13.1s19.34-6.33,19.48-16.42q.11-7.54.2-14.68-8.29.93-16.59,2-.06,7-.11,14.17c0,2.42-.95,3.73-2.8,3.9s-2.83-.94-2.81-3.32q0-3.9,0-7.75a9.84,9.84,0,0,1,8.35-9.53l5.65-.7a9.91,9.91,0,0,0,8.43-9.39q.12-8.68.26-16.75C332.65,297.86,326.1,294.43,312.87,295.26Z" transform="translate(-125.45 -283.13)"/><path class="cls-2" d="M367.55,292.53l-6.12.24-2.26,2.12c-3.82-1.41-6.93-2.06-9.31-1.94-9,.46-13.54,3.82-13.66,10.51q-.39,22-.79,49.29a9,9,0,0,0,3.44,7.52,12.09,12.09,0,0,0,8.36,2.68q6.92-.27,10.21-3.44c-.1,5-2.09,7.63-6,7.71q-6.66.16-13.31.4-.09,5.83-.17,11.9l16.93.14c8.88.1,14.21-1.83,16-5.69a35.76,35.76,0,0,0,2.92-14.13q.94-36.63,1.89-60.93C375.88,295.09,372.22,292.37,367.55,292.53Z" transform="translate(-125.45 -283.13)"/><path class="cls-2" d="M399.35,291.56c-13.12.06-19.84,3.68-20.15,11.9q-.69,17.63-1.38,41.26c-.32,11.16,5.89,17.32,18.62,17.43s19.51-5.37,20-16q.34-8,.69-15.4-8.3-.65-16.59-.85-.3,7.33-.59,15.37c-.1,2.7-1.07,4.07-2.92,4s-2.79-1.43-2.7-4.13q.17-4.42.31-8.62c.18-5.14,4.05-9,8.64-8.88,1.89.06,3.77.14,5.66.24a8.43,8.43,0,0,0,8.72-8q.44-8.74.87-16.47C419,295.32,412.59,291.61,399.35,291.56Z" transform="translate(-125.45 -283.13)"/><path class="cls-2" d="M453.41,330.09a8.7,8.7,0,0,1,.27-5.81c4.05-9.42,8.14-18.51,12.27-28.33-3.16-.41-6.33-.79-9.49-1.13a8.06,8.06,0,0,0-8.57,5c-1.21,3.4-2.41,6.82-3.61,10.3-1-4-2.09-7.83-3.14-11.5a8.21,8.21,0,0,0-7.69-5.66c-3.89-.24-7.78-.42-11.68-.57,3.4,7.88,6.75,17.06,10.05,27.2a8.54,8.54,0,0,1-.24,6c-4.6,10.76-9.13,22.64-13.62,36.09,3.42.18,6.84.38,10.26.62,3.64.25,7-2.41,8.23-6.38,1.43-4.65,2.88-9.11,4.33-13.43,1,4.76,2.07,9.61,3.1,14.49.86,4.07,3.88,7.11,7.47,7.52l.15,0c5.74.59,10.11-4.73,8.44-10.76C457.79,345.9,455.61,337.89,453.41,330.09Z" transform="translate(-125.45 -283.13)"/><path class="cls-2" d="M190,300.45c-13.12-.08-19.43,5.54-18.93,16.12q1,22.49,2.09,39.8c.51,8.12,7.12,12,19.86,12.22s19.12-3.15,18.8-10.77q-.24-5.79-.49-12.24c-5.53.15-11.06.2-16.6.11q.28,6.38.58,12.08c.1,1.92-.78,2.82-2.63,2.78a2.73,2.73,0,0,1-3-2.91q-.16-3.13-.33-6.47c-.21-4.09,3.34-7.52,7.93-7.48h5.66a8,8,0,0,0,8-8.33q-.31-8.85-.62-18.8C210,306.1,203.23,300.44,190,300.45Z" transform="translate(-125.45 -283.13)"/><path class="cls-2" d="M238.58,353.29q-.5-18.44-1-41.74,4.54-.3,9.09-.66-.1-5.59-.21-11.45c-3,.17-6.08.32-9.12.47q-.17-8.13-.33-16.78l-17,.15q.21,9,.42,17.3c-2.5.08-5,.16-7.52.22q.16,6.17.34,12c2.5-.07,5-.17,7.5-.28q.64,23.82,1.28,41.88c.2,5.59,1.07,9,2.6,10.73s6,2.48,13.41,2.2l10.37-.45q-.12-4.75-.24-9.84c-4,.31-6.55.19-7.75-.32S238.63,355.06,238.58,353.29Z" transform="translate(-125.45 -283.13)"/><path class="cls-2" d="M286.63,299.13A13.41,13.41,0,0,0,278,297c-4.7.31-8.17,1.52-10.39,3.69l0-2.5c-2.81.19-5.63.37-8.44.54-4.67.26-8.38,4.8-8.29,9.93q.48,28.51,1,50.92c.09,4,3.84,6.91,8.37,6.69s8.16-3.77,8.11-8q-.28-21.25-.55-45.74c0-2.1.93-3.26,2.85-3.44s2.9.81,2.92,3,0,4.44.06,6.64a7.31,7.31,0,0,0,8.43,7.44,9.8,9.8,0,0,0,8.32-9.46l0-10.7A7.75,7.75,0,0,0,286.63,299.13Z" transform="translate(-125.45 -283.13)"/><path class="cls-2" d="M162.82,336c-9.52-5.64-14.84-9.89-15.87-11.91a22.69,22.69,0,0,1-1.9-8.71c-.22-3.67.71-5.4,2.8-5.14s3.29,3.45,3.63,9.34c0,2.8.09,5.56.13,8.26,5.43.87,10.86,1.55,16.29,2.08q-.36-6.86-.71-14.24c-.48-10.23-7.1-16-19.87-16.83-13.12-.87-19.35,2.88-18.68,12l.63,8.85a14.25,14.25,0,0,0,3.25,8.59c1.92,2.18,7.38,6.69,16.32,12.61,2.39,2,3.76,5.7,4.1,10.87.27,4-.53,5.75-2.38,5.5s-2.84-1.42-3-3.51c-.12-1.83-.25-3.67-.37-5.54-.29-4.25-4.24-8.51-8.83-9.54s-8,1.57-7.72,6l.42,6c.65,9,7.31,14.46,20,15.57,12.95,1.1,19.17-2.12,18.68-10.18q-.27-4.35-.54-9C169,342.87,166.83,339.15,162.82,336Z" transform="translate(-125.45 -283.13)"/></svg>